<svg xmlns="http://www.w3.org/2000/svg" viewBox="0 0 645.82 341.46"><defs><style>.cls-1{fill:#1d130a;}</style></defs><g id="Layer_2" data-name="Layer 2"><g id="Objects"><path class="cls-1" d="M586.24,330.05c-21.08,9.62-45.36,5.09-66.79,1.08l-.25,0c-23-4.29-64.32-6.35-102.92-5.11-45,1.44-78.79,7-92.73,15.3a1.23,1.23,0,0,1-1.28,0c-13.94-8.28-47.74-13.86-92.73-15.3-38.6-1.24-80,.82-102.92,5.11l-.25,0c-21.43,4-45.71,8.55-66.79-1.08-15.87-7.25-24-23.54-20.52-40.82C32.08,287.74,0,278.59,0,236.53s32.08-51.2,39.06-52.69c-3.48-17.29,4.65-33.57,20.52-40.82,21.08-9.63,45.36-5.09,66.79-1.09l.25,0c23,4.29,64.32,6.34,102.92,5.11,45-1.44,78.79-7,92.73-15.31a1.27,1.27,0,0,1,1.28,0c13.94,8.29,47.74,13.87,92.73,15.31,38.6,1.23,80-.82,102.92-5.11l.25,0c21.43-4,45.71-8.54,66.79,1.09,15.87,7.25,24,23.53,20.52,40.82,7,1.49,39.06,10.64,39.06,52.69s-32.08,51.21-39.06,52.7C610.24,306.51,602.11,322.8,586.24,330.05Z"/><path class="cls-1" d="M532.77,92.42a1.24,1.24,0,0,1-.79,1.23,1.25,1.25,0,0,1-1.42-.35c-2.78-3.3-9.39-6.41-14.18-7.5-5.34-1.23-12.85-1.73-17.91.51a1.25,1.25,0,0,1-1.31-2.09c4.22-3.58,7-10.56,8.26-15.9,1.09-4.79,1.17-12.09-.59-16a1.26,1.26,0,0,1,1.75-1.61c4.64,2.58,8.89,8.15,11.09,14.42a65.37,65.37,0,0,1,17.15-4.38,1.22,1.22,0,0,1,1.2.57,1.25,1.25,0,0,1,0,1.34,65.61,65.61,0,0,1-11.41,13.53C529.3,80.87,532.46,87.12,532.77,92.42Z"/><path class="cls-1" d="M470.11,89.18a6.34,6.34,0,0,0,2.09-5.12A1.72,1.72,0,0,0,471,82.49a1.25,1.25,0,1,1,.8-2.37,4.22,4.22,0,0,1,2.89,3.6,8.8,8.8,0,0,1-3.15,7.52,10.15,10.15,0,0,1-14.12-3A12.41,12.41,0,0,1,457.27,75a16,16,0,0,1,14.14-7.94,17.45,17.45,0,0,1,15,10.7c2.55,6.14,1.58,15.92-2.08,20.94l-.13.16c6.56-2.44,13.3-4.74,20.36-4.47h0a17.26,17.26,0,0,1,3.3.33c.92.15,1.84.33,2.78.58,4.43,1.18,10.22,5.3,16.34,9.66,6.91,4.92,14,10,20.17,11.73,3.88,1.09,7.78.73,9.94-.9a6,6,0,0,0,2.2-5.09,1.25,1.25,0,0,1,2.5,0,8.46,8.46,0,0,1-3.2,7.08,11.5,11.5,0,0,1-7,2,19.3,19.3,0,0,1-5.12-.72c-6.53-1.83-13.85-7.05-20.94-12.09-2.31-1.65-4.57-3.26-6.71-4.67l.12.19a14.73,14.73,0,0,1,.23,14.87,13.21,13.21,0,0,1-11.35,6.85,10.81,10.81,0,0,1-1.27-.07,8.44,8.44,0,0,1-5.55-2.68,5.63,5.63,0,0,1-.78-6.45,1.25,1.25,0,1,1,2.14,1.28,3.21,3.21,0,0,0,.53,3.54,6,6,0,0,0,3.94,1.83A10.56,10.56,0,0,0,517,116.23a12.3,12.3,0,0,0-.17-12.4,14.26,14.26,0,0,0-9.44-6.63c-.77-.12-1.54-.21-2.3-.26l-.5,0h0c-7.07-.31-13.87,2.22-21,4.88-1.81.68-3.64,1.36-5.49,2a27.45,27.45,0,0,1-12.38,3.14l-1,0a31.56,31.56,0,0,1-8.93-.52c-14.54-3-21.73-12.62-29.21-22.89,3.28,9,3.44,18.87-.15,27.33-4.21,9.94-13.48,17.49-23.61,19.24a26.6,26.6,0,0,1-4.62.39c-9.23,0-18.34-4.57-23.24-12-6-9.16-5.2-22,1.94-29.81,7.4-8.13,20.83-9.53,29.32-3.07C411,89.19,413.64,94.86,413,100c-.78,6-6.37,10.75-11.95,10.07a1.25,1.25,0,1,1,.3-2.48c4.2.52,8.57-3.25,9.16-7.91.55-4.28-1.72-9-5.78-12.14-7.51-5.71-19.4-4.45-26,2.76-6.39,7-7.13,18.52-1.71,26.75,5.2,7.89,15.63,12.23,25.36,10.55,9.31-1.61,17.84-8.58,21.73-17.75,5.84-13.76,1-31.52-11.42-42.23C401.59,58.08,385,54,368.25,56.8c-17.39,2.89-31.81,13-37.63,26.24a33.27,33.27,0,0,0-.1,25.37c2.81,6.89,7.73,12.06,13.85,14.54,2.43,1,7.16,2.36,11.53.53,3.2-1.35,6.09-5,5.4-8.77a6.1,6.1,0,0,0-3.51-4.21,4.67,4.67,0,0,0-4.34.06,1.25,1.25,0,0,1-1.28-2.15,7.11,7.11,0,0,1,6.65-.18,8.52,8.52,0,0,1,4.93,6c.85,4.56-2.12,9.52-6.88,11.52-3.86,1.62-8.63,1.44-13.44-.51-6.75-2.74-12.16-8.39-15.22-15.92A35.82,35.82,0,0,1,328.33,82c6.16-14.06,21.29-24.68,39.51-27.71a64.22,64.22,0,0,1,20.23-.15h0c22.11,2.6,31.3,15.22,40.2,27.43,7.31,10,14.21,19.51,28,22.36,7.31,1.5,14.26-.21,21-2.54a15.4,15.4,0,0,0,5-4.15c3.16-4.34,4-13.16,1.79-18.51a15.13,15.13,0,0,0-12.82-9.17,13.48,13.48,0,0,0-11.86,6.7,10,10,0,0,0,.08,10.64,7.65,7.65,0,0,0,10.59,2.25Z"/><path class="cls-1" d="M338.46,35.82A43.64,43.64,0,0,1,371,37.47a1.26,1.26,0,0,1-.32,2.36c-19.79,3.55-36.38,13.06-46.73,26.78a1.25,1.25,0,0,1-2,0c-10.35-13.72-27-23.23-46.73-26.78a1.25,1.25,0,0,1-.32-2.36,43.64,43.64,0,0,1,32.5-1.65C304,29.63,298,26,292.49,22.66l-1.5-.91a1.25,1.25,0,0,1,.78-2.31c2.3.24,4.62.24,6.87.25,5.17,0,10.1,0,14.54,2.71.7-9.49,5-16.64,8.71-21.91a1.3,1.3,0,0,1,2,0c3.74,5.26,8,12.42,8.71,21.91,4.44-2.7,9.37-2.7,14.54-2.71,2.25,0,4.57,0,6.87-.25a1.25,1.25,0,0,1,1.31.85,1.23,1.23,0,0,1-.53,1.46l-1.5.91C347.88,26,341.78,29.63,338.46,35.82Z"/><path class="cls-1" d="M148.66,84.22a1.25,1.25,0,0,1-1.31,2.09c-5.07-2.24-12.57-1.74-17.91-.51-4.79,1.09-11.4,4.2-14.18,7.5a1.25,1.25,0,0,1-1.42.35,1.24,1.24,0,0,1-.79-1.23c.31-5.3,3.47-11.55,8.16-16.26A65.61,65.61,0,0,1,109.8,62.63a1.25,1.25,0,0,1,0-1.34,1.22,1.22,0,0,1,1.2-.57,65.37,65.37,0,0,1,17.15,4.38c2.2-6.27,6.45-11.84,11.09-14.42A1.26,1.26,0,0,1,141,52.29c-1.76,3.94-1.68,11.24-.59,16C141.63,73.66,144.44,80.64,148.66,84.22Z"/><path class="cls-1" d="M174.83,82.49a1.72,1.72,0,0,0-1.21,1.57,6.34,6.34,0,0,0,2.09,5.12,7.65,7.65,0,0,0,10.59-2.25,10,10,0,0,0,.08-10.64,13.44,13.44,0,0,0-11.86-6.7,15.13,15.13,0,0,0-12.82,9.17c-2.23,5.35-1.37,14.17,1.79,18.51a15.46,15.46,0,0,0,5,4.15c6.75,2.33,13.71,4,21,2.54,13.81-2.85,20.71-12.33,28-22.36,8.9-12.21,18.09-24.83,40.19-27.43h0a64.22,64.22,0,0,1,20.23.15C296.2,57.36,311.33,68,317.49,82a35.82,35.82,0,0,1,.12,27.31c-3.06,7.53-8.47,13.18-15.22,15.92-4.81,2-9.58,2.13-13.44.51-4.76-2-7.73-7-6.88-11.52a8.52,8.52,0,0,1,4.93-6,7.11,7.11,0,0,1,6.65.18,1.26,1.26,0,0,1,.43,1.72,1.25,1.25,0,0,1-1.71.43,4.67,4.67,0,0,0-4.34-.06,6.1,6.1,0,0,0-3.51,4.21c-.69,3.78,2.2,7.42,5.4,8.77,4.37,1.83,9.1.45,11.53-.53,6.12-2.48,11-7.65,13.85-14.54A33.27,33.27,0,0,0,315.2,83C309.38,69.75,295,59.69,277.57,56.8,260.86,54,244.23,58.08,233.1,67.64c-12.45,10.71-17.26,28.47-11.42,42.23,3.89,9.17,12.42,16.14,21.73,17.75,9.74,1.68,20.16-2.66,25.36-10.55,5.42-8.23,4.68-19.73-1.71-26.75-6.56-7.21-18.45-8.47-26-2.76-4.06,3.09-6.33,7.86-5.79,12.14.6,4.66,5,8.43,9.17,7.91a1.25,1.25,0,1,1,.3,2.48c-5.6.69-11.17-4-11.95-10.07-.65-5.16,2-10.83,6.76-14.45,8.5-6.46,21.92-5.06,29.32,3.07,7.14,7.83,8,20.65,1.94,29.81-4.9,7.45-14,12-23.24,12a26.6,26.6,0,0,1-4.62-.39c-10.13-1.75-19.4-9.3-23.61-19.24-3.59-8.46-3.43-18.32-.15-27.33-7.48,10.27-14.67,19.9-29.21,22.89a31.49,31.49,0,0,1-8.92.52l-1,0a27.49,27.49,0,0,1-12.39-3.14c-1.84-.64-3.67-1.32-5.48-2-7.11-2.66-13.91-5.19-21-4.88h0l-.51,0c-.75,0-1.52.14-2.28.26a14.25,14.25,0,0,0-9.45,6.63,12.3,12.3,0,0,0-.17,12.4A10.56,10.56,0,0,0,139,121.72a6,6,0,0,0,3.94-1.83,3.21,3.21,0,0,0,.53-3.54,1.25,1.25,0,0,1,2.14-1.28,5.63,5.63,0,0,1-.78,6.45,8.44,8.44,0,0,1-5.55,2.68,10.81,10.81,0,0,1-1.27.07,13.19,13.19,0,0,1-11.35-6.85,14.73,14.73,0,0,1,.23-14.87l.12-.19c-2.14,1.41-4.4,3-6.71,4.67-7.09,5-14.41,10.26-20.94,12.09a19.3,19.3,0,0,1-5.12.72,11.55,11.55,0,0,1-7-2A8.48,8.48,0,0,1,84,110.73a1.25,1.25,0,0,1,2.5,0,6,6,0,0,0,2.2,5.09c2.16,1.63,6.06,2,9.94.9,6.12-1.72,13.26-6.81,20.17-11.73,6.12-4.36,11.91-8.48,16.34-9.66a28.06,28.06,0,0,1,2.78-.58,17.26,17.26,0,0,1,3.3-.33h0c7.05-.27,13.79,2,20.35,4.47l-.13-.16c-3.66-5-4.63-14.8-2.08-20.94a17.45,17.45,0,0,1,15-10.7A16,16,0,0,1,188.54,75a12.39,12.39,0,0,1-.13,13.23,10.15,10.15,0,0,1-14.12,3,8.8,8.8,0,0,1-3.15-7.52,4.22,4.22,0,0,1,2.89-3.6,1.26,1.26,0,0,1,1.59.79A1.25,1.25,0,0,1,174.83,82.49Z"/></g></g></svg>