<svg xmlns="http://www.w3.org/2000/svg" viewBox="0 0 645.82 341.47"><defs><style>.cls-1{fill:#1d130a;}</style></defs><g id="Layer_2" data-name="Layer 2"><g id="Objects"><path class="cls-1" d="M498.47,86.31c5.06-2.24,12.57-1.74,17.91-.51,4.79,1.1,11.4,4.2,14.18,7.5a1.23,1.23,0,0,0,1,.44,1.23,1.23,0,0,0,1.25-1.32c-.31-5.3-3.47-11.55-8.16-16.25A65.94,65.94,0,0,0,536,62.63a1.25,1.25,0,0,0,0-1.34,1.22,1.22,0,0,0-1.2-.56,65,65,0,0,0-17.15,4.38c-2.2-6.27-6.45-11.85-11.09-14.43a1.26,1.26,0,0,0-1.75,1.61c1.76,3.94,1.68,11.25.59,16-1.23,5.35-4,12.33-8.26,15.91a1.24,1.24,0,0,0,1.31,2.08Z"/><path class="cls-1" d="M121.21,76.17c-4.69,4.7-7.85,11-8.16,16.25a1.23,1.23,0,0,0,1.25,1.32,1.23,1.23,0,0,0,1-.44c2.78-3.3,9.39-6.4,14.18-7.5,5.34-1.23,12.84-1.73,17.91.51a1.24,1.24,0,0,0,1.31-2.08c-4.22-3.58-7-10.56-8.26-15.91-1.09-4.78-1.17-12.09.59-16a1.26,1.26,0,0,0-1.75-1.61c-4.64,2.58-8.89,8.16-11.09,14.43A65,65,0,0,0,111,60.73a1.22,1.22,0,0,0-1.2.56,1.25,1.25,0,0,0,0,1.34A65.94,65.94,0,0,0,121.21,76.17Z"/><path class="cls-1" d="M87.19,117.81a11.55,11.55,0,0,0,7,2,19.36,19.36,0,0,0,5.12-.71c6.53-1.84,13.85-7,20.94-12.09,2.31-1.65,4.57-3.26,6.71-4.68l-.12.19a14.73,14.73,0,0,0-.23,14.87A13.2,13.2,0,0,0,138,124.28a10.81,10.81,0,0,0,1.27-.07,8.48,8.48,0,0,0,5.55-2.68,5.63,5.63,0,0,0,.78-6.45,1.25,1.25,0,0,0-2.14,1.28,3.21,3.21,0,0,1-.53,3.54,6,6,0,0,1-3.94,1.82,10.53,10.53,0,0,1-10.14-5.49,12.3,12.3,0,0,1,.17-12.4,14.27,14.27,0,0,1,9.45-6.62,22.42,22.42,0,0,1,2.28-.26l.51,0h0c7.06-.3,13.86,2.23,21,4.89,1.81.67,3.64,1.35,5.48,2A27.5,27.5,0,0,0,180.1,107c.33,0,.67,0,1,0a31.47,31.47,0,0,0,8.92-.51c14.54-3,21.73-12.62,29.21-22.9-3.28,9-3.44,18.88.15,27.34,4.21,9.93,13.48,17.48,23.61,19.24a27.62,27.62,0,0,0,4.62.39c9.23,0,18.34-4.58,23.24-12,6-9.16,5.2-22-1.94-29.81-7.4-8.12-20.82-9.52-29.32-3.06-4.76,3.62-7.41,9.29-6.76,14.44.78,6.06,6.35,10.76,11.95,10.07a1.25,1.25,0,0,0-.3-2.48c-4.19.53-8.57-3.25-9.17-7.91-.54-4.28,1.73-9,5.79-12.13,7.51-5.71,19.4-4.45,26,2.75,6.39,7,7.13,18.52,1.71,26.76-5.2,7.89-15.62,12.23-25.36,10.54-9.31-1.61-17.84-8.57-21.73-17.75-5.84-13.76-1-31.52,11.42-42.22,11.13-9.57,27.76-13.62,44.47-10.84C295,59.7,309.38,69.75,315.2,83a33.27,33.27,0,0,1,.1,25.37c-2.81,6.9-7.73,12.06-13.85,14.54-2.43,1-7.16,2.37-11.53.53-3.2-1.34-6.09-5-5.4-8.76a6.1,6.1,0,0,1,3.51-4.21,4.65,4.65,0,0,1,4.33,0,1.25,1.25,0,1,0,1.29-2.14,7.08,7.08,0,0,0-6.65-.19,8.54,8.54,0,0,0-4.93,6c-.85,4.57,2.12,9.52,6.88,11.53,3.86,1.62,8.63,1.43,13.44-.52,6.75-2.74,12.16-8.39,15.22-15.92A35.82,35.82,0,0,0,317.49,82C311.33,68,296.2,57.37,278,54.34a64.23,64.23,0,0,0-20.23-.16h0c-22.1,2.6-31.29,15.22-40.19,27.42-7.31,10-14.21,19.52-28,22.36-7.31,1.51-14.27-.2-21-2.53a15.61,15.61,0,0,1-5-4.16c-3.16-4.33-4-13.15-1.79-18.5a15.13,15.13,0,0,1,12.82-9.17,13.43,13.43,0,0,1,11.86,6.69,10,10,0,0,1-.08,10.65,7.65,7.65,0,0,1-10.59,2.25,6.39,6.39,0,0,1-2.1-5.12,1.73,1.73,0,0,1,1.22-1.57,1.25,1.25,0,0,0-.8-2.37,4.21,4.21,0,0,0-2.89,3.59,8.79,8.79,0,0,0,3.15,7.52,10.14,10.14,0,0,0,14.12-3A12.41,12.41,0,0,0,188.54,75a16,16,0,0,0-14.13-7.94,17.48,17.48,0,0,0-15,10.71c-2.55,6.13-1.58,15.92,2.08,20.93,0,.06.09.11.13.16-6.56-2.44-13.3-4.74-20.35-4.47h0a16.49,16.49,0,0,0-3.3.33,25.4,25.4,0,0,0-2.78.57c-4.43,1.19-10.22,5.31-16.34,9.67-6.91,4.92-14,10-20.17,11.72-3.88,1.09-7.78.74-9.94-.9a6,6,0,0,1-2.2-5.08,1.25,1.25,0,0,0-2.5,0A8.46,8.46,0,0,0,87.19,117.81Z"/><path class="cls-1" d="M367.84,54.34c-18.22,3-33.35,13.64-39.51,27.7a35.85,35.85,0,0,0-.12,27.32c3.06,7.52,8.47,13.17,15.22,15.91,4.81,2,9.58,2.14,13.43.52,4.77-2,7.74-7,6.89-11.53a8.54,8.54,0,0,0-4.93-6,7.08,7.08,0,0,0-6.65.19,1.25,1.25,0,0,0,1.28,2.14,4.7,4.7,0,0,1,4.34,0,6.1,6.1,0,0,1,3.51,4.21c.69,3.77-2.2,7.42-5.4,8.76-4.37,1.84-9.1.46-11.53-.53-6.12-2.48-11-7.64-13.85-14.54a33.27,33.27,0,0,1,.1-25.37c5.82-13.29,20.24-23.34,37.63-26.23C385,54,401.59,58.08,412.72,67.65c12.45,10.7,17.26,28.46,11.42,42.22-3.89,9.18-12.42,16.14-21.73,17.75-9.73,1.69-20.16-2.65-25.36-10.54-5.42-8.24-4.68-19.74,1.71-26.76,6.56-7.2,18.45-8.46,26-2.75,4.06,3.09,6.33,7.85,5.78,12.13-.59,4.66-5,8.44-9.16,7.91a1.25,1.25,0,0,0-.3,2.48c5.58.69,11.17-4,11.95-10.07.65-5.15-2-10.82-6.76-14.44-8.49-6.46-21.92-5.06-29.32,3.06-7.14,7.84-8,20.65-1.94,29.81,4.9,7.45,14,12,23.24,12a27.62,27.62,0,0,0,4.62-.39c10.13-1.76,19.4-9.31,23.61-19.24,3.59-8.46,3.43-18.32.15-27.34,7.48,10.28,14.67,19.9,29.21,22.9a31.54,31.54,0,0,0,8.93.51q.5,0,1,0a27.46,27.46,0,0,0,12.38-3.15c1.85-.64,3.68-1.31,5.49-2,7.11-2.66,13.91-5.19,21-4.89h0l.5,0a22.8,22.8,0,0,1,2.3.26,14.25,14.25,0,0,1,9.44,6.62,12.3,12.3,0,0,1,.17,12.4,10.53,10.53,0,0,1-10.14,5.49,6,6,0,0,1-3.94-1.82,3.21,3.21,0,0,1-.53-3.54,1.25,1.25,0,1,0-2.14-1.28,5.63,5.63,0,0,0,.78,6.45,8.48,8.48,0,0,0,5.55,2.68,10.81,10.81,0,0,0,1.27.07,13.2,13.2,0,0,0,11.35-6.86,14.73,14.73,0,0,0-.23-14.87l-.12-.19c2.14,1.42,4.4,3,6.71,4.68,7.09,5,14.41,10.25,20.94,12.09a19.3,19.3,0,0,0,5.12.71,11.5,11.5,0,0,0,7-2,8.44,8.44,0,0,0,3.2-7.07,1.25,1.25,0,0,0-2.5,0,6,6,0,0,1-2.21,5.08c-2.15,1.64-6.05,2-9.93.9C541.06,115,533.92,109.92,527,105c-6.12-4.36-11.91-8.48-16.34-9.67a25.89,25.89,0,0,0-2.78-.57,16.49,16.49,0,0,0-3.3-.33h0c-7.06-.27-13.8,2-20.36,4.47,0-.05.09-.1.13-.16,3.66-5,4.63-14.8,2.08-20.93a17.48,17.48,0,0,0-15-10.71A16,16,0,0,0,457.27,75a12.43,12.43,0,0,0,.14,13.24,10.14,10.14,0,0,0,14.12,3,8.79,8.79,0,0,0,3.15-7.52,4.21,4.21,0,0,0-2.89-3.59,1.25,1.25,0,1,0-.8,2.37,1.71,1.71,0,0,1,1.21,1.57,6.36,6.36,0,0,1-2.09,5.12,7.65,7.65,0,0,1-10.59-2.25,10,10,0,0,1-.08-10.64,13.46,13.46,0,0,1,11.86-6.7,15.13,15.13,0,0,1,12.82,9.17c2.23,5.35,1.37,14.17-1.79,18.5a15.29,15.29,0,0,1-5,4.16c-6.75,2.33-13.7,4-21,2.53-13.81-2.84-20.71-12.32-28-22.36-8.89-12.2-18.08-24.82-40.19-27.42h0A64.23,64.23,0,0,0,367.84,54.34Z"/><path class="cls-1" d="M275.18,39.84C295,43.38,311.56,52.9,321.91,66.61a1.25,1.25,0,0,0,2,0c10.35-13.71,26.94-23.23,46.73-26.77a1.26,1.26,0,0,0,1-1.06,1.23,1.23,0,0,0-.69-1.3,43.59,43.59,0,0,0-32.5-1.66c3.32-6.19,9.42-9.86,14.87-13.15l1.5-.92a1.22,1.22,0,0,0,.53-1.46,1.25,1.25,0,0,0-1.31-.85c-2.3.24-4.62.24-6.87.25-5.17,0-10.1,0-14.54,2.72-.7-9.49-5-16.66-8.71-21.92a1.31,1.31,0,0,0-2,0c-3.74,5.27-8,12.43-8.71,21.92-4.44-2.7-9.37-2.7-14.54-2.72-2.25,0-4.57,0-6.87-.25a1.25,1.25,0,0,0-.78,2.31l1.5.92C298,26,304,29.63,307.36,35.82a43.59,43.59,0,0,0-32.5,1.66,1.26,1.26,0,0,0-.7,1.3A1.29,1.29,0,0,0,275.18,39.84Z"/><path class="cls-1" d="M645.82,236.54c0-42.06-32.08-51.2-39.06-52.69,3.48-17.3-4.65-33.57-20.52-40.82-21.08-9.63-45.36-5.1-66.79-1.1l-.25,0c-23,4.3-64.32,6.34-102.92,5.12-45-1.44-78.79-7-92.73-15.31a1.23,1.23,0,0,0-1.28,0c-13.94,8.28-47.74,13.87-92.73,15.31-38.6,1.22-80-.82-102.92-5.12l-.25,0c-21.43-4-45.71-8.53-66.79,1.1-15.87,7.25-24,23.52-20.52,40.82C32.08,185.34,0,194.48,0,236.54s32.08,51.2,39.06,52.69c-3.48,17.28,4.65,33.57,20.52,40.82,21.08,9.63,45.36,5.1,66.79,1.08l.25,0c23-4.3,64.32-6.36,102.92-5.12,45,1.44,78.79,7,92.73,15.31a1.23,1.23,0,0,0,1.28,0c13.94-8.29,47.74-13.87,92.73-15.31,38.6-1.24,80,.82,102.92,5.12l.25,0c21.43,4,45.71,8.54,66.79-1.08,15.87-7.25,24-23.54,20.52-40.82C613.74,287.74,645.82,278.6,645.82,236.54ZM585.5,279.47c3.28,14-2.12,27.51-13.74,34.43-10.89,6.46-30.38,2.89-51-.91-11.88-2.18-24.16-4.44-35.57-4.93-54.16-2.32-139.71.06-162.27,12.54-17.6-9.74-73.57-13.32-123-13.32-13.92,0-27.32.27-39.22.78-11.41.49-23.69,2.75-35.57,4.93-20.63,3.8-40.12,7.37-51,.91C62.44,307,57,293.47,60.32,279.47a1.24,1.24,0,0,0-.2-1,1.27,1.27,0,0,0-.88-.53c-1.53-.17-37.62-4.71-37.62-41.39s36.09-41.23,37.62-41.41a1.17,1.17,0,0,0,.88-.52,1.23,1.23,0,0,0,.2-1c-3.28-14,2.12-27.51,13.74-34.43,10.89-6.47,30.38-2.89,51,.89,11.88,2.18,24.16,4.44,35.57,4.93,54.16,2.34,139.72,0,162.27-12.52C345.46,165,431,167.34,485.18,165c11.41-.49,23.69-2.75,35.57-4.93,20.63-3.78,40.12-7.36,51-.89,11.62,6.92,17,20.43,13.74,34.43a1.23,1.23,0,0,0,.2,1,1.17,1.17,0,0,0,.88.52c1.53.18,37.62,4.73,37.62,41.41s-36.09,41.22-37.62,41.39a1.27,1.27,0,0,0-.88.53A1.24,1.24,0,0,0,585.5,279.47Z"/></g></g></svg>