<svg xmlns="http://www.w3.org/2000/svg" viewBox="0 0 642.94 90.43"><defs><style>.cls-1{fill:#1d130a;}</style></defs><g id="Layer_2" data-name="Layer 2"><g id="Objects"><path class="cls-1" d="M37.62,38.2C31.53,36.9,6.31,29.76,0,0H642.94c-6.31,29.76-31.53,36.9-37.62,38.2C608.8,55.48,600.67,71.77,584.8,79c-21.08,9.62-45.36,5.09-66.79,1.08l-.25,0c-23-4.29-64.32-6.35-102.92-5.11-45,1.44-78.79,7-92.73,15.3a1.23,1.23,0,0,1-1.28,0C306.89,82,273.09,76.39,228.1,75c-38.6-1.24-80,.82-102.92,5.11l-.25,0c-21.43,4-45.71,8.55-66.79-1.08C42.27,71.77,34.14,55.48,37.62,38.2Z"/></g></g></svg>