<svg id="Layer_1" data-name="Layer 1" xmlns="http://www.w3.org/2000/svg" viewBox="0 0 1080 1080"><defs><style>.cls-1{fill:#1c130b;}</style></defs><path class="cls-1" d="M257.87,706.4V447.46a15.46,15.46,0,0,1,2.45,1.09q114.51,76.33,229,152.7c33.27,22.19,67.75,22.36,100.86.31Q703.33,526.2,816.42,450.75c1.61-1.08,3.26-2.09,5.6-3.58v4.5q0,123.39-.08,246.78a56.13,56.13,0,0,1-1.65,13.6c-6.1,24.19-26.55,39.29-53.09,39.3q-116,.06-231.9,0-111.27,0-222.54,0c-15,0-28.11-4.39-39.09-14.8C264.93,728.31,260.59,717.79,257.87,706.4Z"/><path class="cls-1" d="M257.87,373.64c.91-3.14,1.7-6.32,2.75-9.42,7.13-21.19,26.26-35,49.39-35.5,9.54-.21,19.09-.05,28.64-.05q214,0,428,0c16.43,0,30.69,4.9,41.86,17.29,21.06,23.37,17.28,58.31-8.73,76C765.51,445.24,730.86,468,696.36,491q-61.61,41.07-123.2,82.14c-23.63,15.74-42.73,15.73-66.32,0-72.38-48.24-144.61-96.7-217.23-144.56C274.12,418.41,261.7,406.8,257.87,388Z"/></svg>