<svg id="Layer_1" data-name="Layer 1" xmlns="http://www.w3.org/2000/svg" viewBox="0 0 1080 1080"><defs><style>.cls-1{fill:#1c130b;}</style></defs><path class="cls-1" d="M374,257c11.18,2.44,21.94,5.85,30.89,13.42,1.26,1.06,2.59,2.07,3.75,3.23,25.37,25.33,50.84,50.56,76,76.08,18.71,18.95,22,45,8.79,66.67a47.34,47.34,0,0,1-25.09,20.51C452.76,442.5,440.74,452,434,467.51a47.05,47.05,0,0,0-2.17,31.75c7.56,28.39,23.16,52.2,42.14,74,22.76,26.18,48.79,48.38,80.14,63.74,13.08,6.41,26.56,12,41.68,9.91,20-2.77,35.21-12.5,43.11-31.57,4.94-12,10.77-22.87,22.13-30,21.45-13.47,47.86-10.84,66.78,7.68q39.21,38.38,77.61,77.6c21.32,21.76,20.88,56.64-.63,78.55-16.87,17.19-34.06,34.06-51.05,51.13C739.19,815,721,820.71,700.94,821.7c-23.67,1.16-46.37-4.15-68.56-11.66-43.37-14.66-82.5-37.46-119.54-63.94A776.63,776.63,0,0,1,351.25,590.66c-34.26-44-63.55-90.93-81.62-144.09-7.78-22.88-13-46.32-11.73-70.78,1.11-21.58,8.14-40.36,24.22-55.56,13.49-12.74,26.6-25.92,39.4-39.37C332.79,269,345,259.25,361.81,257Z"/></svg>