<svg id="Layer_1" data-name="Layer 1" xmlns="http://www.w3.org/2000/svg" viewBox="0 0 587.9 497.96"><defs><style>.cls-1{fill:#ead5b0;}</style></defs><path class="cls-1" d="M246.05,460.75c2.24-12.16,3.51-24.59,6.89-36.42C267.43,373.6,298,335.78,345,311.23c32.94-17.21,68.22-21.46,104.6-19.91,13.79.59,22.43,10.14,22.55,24q.18,21.22,0,42.47c-.13,14.27-9.58,23.26-23.8,23.93-15.42.72-31.21.31-46.11,3.64-36,8-64.56,44.69-65.42,81.47-.2,8.55-.48,17.36,1.24,25.64A31.13,31.13,0,0,0,368.19,517c26,.42,52,.29,78.06.25,30.1,0,52.51,12.91,65,40.32,4,8.72,5.6,19.18,5.73,28.88.58,44.38.44,88.78.2,133.17-.22,40.16-28.38,68.65-68.69,69q-66.87.65-133.75,0c-35.66-.34-61.27-22.37-67.85-57.15a10.84,10.84,0,0,0-.87-2.1Z" transform="translate(-246.05 -291.02)"/><path class="cls-1" d="M562.94,592.09c0-42.47-1.75-85,.4-127.38,3.53-69.49,37.37-120.93,98.94-153.77,32.6-17.38,67.88-21.16,104.05-19.6,13.09.57,21.79,9.3,22.25,22.45.53,15.09.54,30.23,0,45.32-.5,13.85-10,22-23.89,22.6-15.23.7-30.81.33-45.54,3.57-35.42,7.8-63.91,43.3-65.64,79.43a181,181,0,0,0,0,22.34A32,32,0,0,0,684.92,517c26.39.48,52.79.15,79.19.29,29.65.16,51.36,13.57,63.85,40.39a62.09,62.09,0,0,1,5.61,24.88c.53,46.86.41,93.73.21,140.59-.14,33.44-28.26,65.63-68.2,65.61-45,0-89.92.43-134.86-.15-35.32-.46-61.83-23.48-67.26-57.12a95.67,95.67,0,0,1-.75-14.87q-.08-62.26,0-124.53Z" transform="translate(-246.05 -291.02)"/></svg>